<svg width="25" height="25" viewBox="0 0 25 25" fill="none" xmlns="http://www.w3.org/2000/svg">
<path fill-rule="evenodd" clip-rule="evenodd" d="M17.9868 9.25989C18.6146 7.85409 17.1712 6.41764 15.7585 7.04244L10.131 9.53139C9.74913 9.7003 9.44376 10.0042 9.27402 10.3842L6.77291 15.9844C6.14506 17.3902 7.58852 18.8266 9.00119 18.2018L14.6287 15.7129C15.0105 15.544 15.316 15.2401 15.4857 14.86L17.9868 9.25989ZM11.2429 11.4907L15.3357 9.68064L13.5168 13.7535L9.424 15.5636L11.2429 11.4907Z" fill="#DD004A"/>
<path fill-rule="evenodd" clip-rule="evenodd" d="M12.3798 24.9418C19.2169 24.9418 24.7595 19.426 24.7595 12.6221C24.7595 5.81818 19.2169 0.30249 12.3798 0.30249C5.54262 0.30249 0 5.81818 0 12.6221C0 19.426 5.54262 24.9418 12.3798 24.9418ZM12.3798 22.6872C6.79385 22.6872 2.26557 18.1809 2.26557 12.6221C2.26557 7.06334 6.79385 2.55705 12.3798 2.55705C17.9656 2.55705 22.4939 7.06334 22.4939 12.6221C22.4939 18.1809 17.9656 22.6872 12.3798 22.6872Z" fill="#DD004A"/>
</svg>
