<svg width="39" height="39" viewBox="0 0 39 39" fill="none" xmlns="http://www.w3.org/2000/svg">
<path d="M35.5942 9.81788L18.9713 26.4408C17.3159 28.0961 12.4022 28.8628 11.3044 27.765C10.2067 26.6673 10.956 21.7536 12.6113 20.0982L29.2517 3.45789C29.6621 3.01019 30.1588 2.6503 30.7122 2.39991C31.2655 2.14952 31.8638 2.01378 32.4711 2.00099C33.0781 1.98822 33.6817 2.09859 34.2451 2.32547C34.8084 2.55236 35.32 2.89109 35.7488 3.32113C36.1776 3.75116 36.5149 4.26362 36.7402 4.82758C36.9655 5.39156 37.0744 5.99531 37.06 6.60247C37.0455 7.20963 36.908 7.80762 36.6563 8.36024C36.4043 8.91285 36.0431 9.40874 35.5942 9.81788Z" stroke="#FFF8F8" stroke-width="3" stroke-linecap="round" stroke-linejoin="round"/>
<path d="M17.682 5.63599H8.9698C7.12128 5.63599 5.3486 6.37029 4.04151 7.67739C2.73442 8.98449 2 10.7573 2 12.6058V30.0303C2 31.8788 2.73442 33.6516 4.04151 34.9586C5.3486 36.2658 7.12128 37.0001 8.9698 37.0001H28.1367C31.9876 37.0001 33.3641 33.8637 33.3641 30.0303V21.318" stroke="#FFF8F8" stroke-width="3" stroke-linecap="round" stroke-linejoin="round"/>
</svg>
