<svg width="33" height="26" viewBox="0 0 33 26" fill="none" xmlns="http://www.w3.org/2000/svg">
<path d="M16.0612 15.0781C16.6142 15.0781 17.1135 15.4118 17.329 15.9257C17.5445 16.4394 17.4346 17.0333 17.0495 17.4338L9.70727 25.0727C9.448 25.3425 9.09142 25.4948 8.71897 25.4948C8.34651 25.4948 7.98994 25.3425 7.73064 25.0727L0.388385 17.4338C0.00344907 17.0333 -0.106611 16.4394 0.108921 15.9257C0.324453 15.4118 0.823745 15.0781 1.37671 15.0781H7.34229V1.88364C7.34229 1.11658 7.95864 0.494751 8.71897 0.494751C9.47928 0.494751 10.0956 1.11658 10.0956 1.88364V15.0781H16.0612Z" fill="#5A001E"/>
<path d="M31.2047 10.9114C31.7578 10.9114 32.2571 10.5777 32.4726 10.0638C32.6881 9.55012 32.5781 8.95616 32.193 8.55566L24.8508 0.91677C24.5916 0.64701 24.2349 0.494751 23.8625 0.494751C23.4901 0.494751 23.1336 0.64701 22.8742 0.91677L15.532 8.55566C15.1471 8.95616 15.0369 9.55012 15.2524 10.0638C15.4681 10.5777 15.9674 10.9114 16.5203 10.9114H22.4858V24.1059C22.4858 24.8729 23.1022 25.4948 23.8625 25.4948C24.6228 25.4948 25.2392 24.8729 25.2392 24.1059V10.9114H31.2047Z" fill="#5A001E"/>
</svg>
