<svg width="24" height="25" viewBox="0 0 24 25" fill="none" xmlns="http://www.w3.org/2000/svg">
<path fill-rule="evenodd" clip-rule="evenodd" d="M11.9359 2.65951C11.7238 2.59806 11.4986 2.59806 11.2864 2.65951C11.2255 2.6772 11.1182 2.72145 10.89 2.89335C10.6502 3.07414 10.3564 3.33287 9.89869 3.73775L3.81488 9.11927C3.06905 9.77903 2.85761 9.97801 2.71061 10.198C2.56921 10.4097 2.46388 10.6431 2.39884 10.8889C2.33123 11.1445 2.32229 11.4338 2.32229 12.4269V16.8535C2.32229 17.9461 2.32293 18.7077 2.36379 19.3037C2.40395 19.8895 2.47905 20.2306 2.58746 20.4909C2.94099 21.3403 3.6191 22.0152 4.4726 22.3669C4.73431 22.4748 5.07706 22.5496 5.66564 22.5896C6.26466 22.6302 7.02993 22.6308 8.12783 22.6308H15.0945C16.1924 22.6308 16.9576 22.6302 17.5567 22.5896C18.1452 22.5496 18.488 22.4748 18.7497 22.3669C19.6032 22.0152 20.2813 21.3403 20.6349 20.4909C20.7432 20.2306 20.8183 19.8895 20.8585 19.3037C20.8994 18.7077 20.9001 17.9461 20.9001 16.8535V12.4269C20.9001 11.4338 20.8911 11.1445 20.8234 10.8889C20.7584 10.6431 20.6531 10.4097 20.5117 10.198C20.3647 9.97801 20.1532 9.77903 19.4075 9.11927L13.3236 3.73775C12.8659 3.33287 12.5721 3.07414 12.3323 2.89335C12.1041 2.72145 11.9968 2.6772 11.9359 2.65951ZM10.6372 0.440748C11.2733 0.256404 11.949 0.256404 12.5851 0.440748C13.0265 0.568669 13.3925 0.793615 13.7339 1.05091C14.0556 1.29324 14.4178 1.61364 14.8349 1.98259L20.9502 7.39207C20.9832 7.42118 21.0156 7.44991 21.0478 7.47826C21.6535 8.0135 22.111 8.41784 22.4456 8.91864C22.7283 9.34199 22.9391 9.80886 23.0691 10.3005C23.223 10.882 23.2227 11.491 23.2223 12.297C23.2223 12.3398 23.2223 12.383 23.2223 12.4269V16.8945C23.2223 17.9365 23.2223 18.777 23.1754 19.461C23.1271 20.1644 23.0255 20.7864 22.7804 21.3753C22.1911 22.791 21.0609 23.9156 19.6384 24.502C19.0466 24.7459 18.4216 24.8471 17.7147 24.8951C17.0273 24.9418 16.1827 24.9418 15.1357 24.9418H8.08658C7.03954 24.9418 6.19496 24.9418 5.50757 24.8951C4.80076 24.8471 4.17576 24.7459 3.58394 24.502C2.16142 23.9156 1.03123 22.7909 0.442008 21.3753C0.196864 20.7864 0.095197 20.1644 0.0469647 19.461C6.75464e-05 18.777 7.92954e-05 17.9365 7.92954e-05 16.8945V12.4269C7.92954e-05 12.383 5.6026e-05 12.3398 4.44149e-05 12.297C-0.000385195 11.491 -0.000698787 10.882 0.153171 10.3005C0.28325 9.80886 0.493933 9.34199 0.776732 8.91864C1.11127 8.41784 1.56885 8.0135 2.17457 7.47827C2.20666 7.44991 2.23916 7.42118 2.27209 7.39207L8.38744 1.9826C8.80451 1.61364 9.16669 1.29324 9.48835 1.05091C9.82983 0.793615 10.1958 0.568669 10.6372 0.440748Z" fill="#DD004A"/>
</svg>
