<svg width="29" height="29" viewBox="0 0 29 29" fill="none" xmlns="http://www.w3.org/2000/svg">
<path d="M27 20.0556V25.6111C27 26.3782 26.3782 27 25.6111 27H3.38889C2.62183 27 2 26.3782 2 25.6111V22.8333M27 20.0556V3.38889C27 2.62183 26.3782 2 25.6111 2H3.38889C2.62183 2 2 2.62183 2 3.38889V22.8333M27 20.0556L19.3374 14.9471C18.9226 14.6706 18.3915 14.6375 17.9457 14.8604L2 22.8333" stroke="#D8D8D8" stroke-width="3" stroke-linejoin="round"/>
<path d="M8.9444 13.1111C10.4785 13.1111 11.7222 11.8674 11.7222 10.3333C11.7222 8.7992 10.4785 7.55554 8.9444 7.55554C7.41028 7.55554 6.16663 8.7992 6.16663 10.3333C6.16663 11.8674 7.41028 13.1111 8.9444 13.1111Z" stroke="#D8D8D8" stroke-width="3" stroke-linejoin="round"/>
</svg>
