<svg width="22" height="24" viewBox="0 0 22 24" fill="none" xmlns="http://www.w3.org/2000/svg">
<path d="M9.82599 3.40464L2.72736 19.1794C2.18325 20.3886 1.91121 20.9931 2.02589 21.3477C2.1252 21.6547 2.37109 21.8918 2.68143 21.9801C3.03986 22.082 3.63429 21.7885 4.82314 21.2014L10.1737 18.5591C10.4626 18.4164 10.6071 18.3452 10.7583 18.3171C10.8924 18.2922 11.0298 18.2922 11.1639 18.3171C11.3152 18.3452 11.4596 18.4164 11.7485 18.5591L17.0991 21.2014C18.2879 21.7885 18.8824 22.082 19.2408 21.9801C19.5512 21.8918 19.7971 21.6547 19.8963 21.3477C20.011 20.9931 19.739 20.3886 19.1949 19.1794L12.0962 3.40464C11.7361 2.60438 11.5561 2.20425 11.3059 2.08059C11.0886 1.97314 10.8337 1.97314 10.6163 2.08059C10.3662 2.20425 10.1861 2.60438 9.82599 3.40464Z" stroke="white" stroke-width="3" stroke-linecap="round" stroke-linejoin="round"/>
</svg>
