<svg width="99" height="31" viewBox="0 0 99 31" fill="none" xmlns="http://www.w3.org/2000/svg">
<g clip-path="url(#clip0_26_1842)">
<path d="M51.2429 10.6912C51.2429 13.091 51.2225 15.4935 51.2506 17.8933C51.2685 19.402 51.5649 20.8638 52.3393 22.1745C53.5251 24.1835 55.3805 25.0486 57.5911 25.2492C62.5082 25.6974 65.741 22.7113 65.7896 17.6718C65.8075 15.6941 65.7819 13.7138 65.7998 11.7361C65.8151 9.99545 66.8987 8.76817 68.4883 8.6457C69.9195 8.53366 71.2791 9.52643 71.3634 11.1654C71.5883 15.556 72.0202 20.017 69.9553 24.1444C67.8469 28.3656 64.407 30.5987 59.7634 30.9479C56.3772 31.2032 53.2287 30.557 50.466 28.4568C47.4299 26.1482 45.986 22.9327 45.71 19.1858C45.3241 13.9405 45.5771 8.68218 45.5541 3.42909C45.5439 1.0084 47.2255 -0.398677 49.2317 0.218873C50.4865 0.604517 51.225 1.67546 51.2353 3.19719C51.248 5.69605 51.2378 8.19231 51.2404 10.6912H51.2429Z" fill="#DD004A"/>
<path d="M98.9719 27.5084C98.9668 28.5428 98.172 29.7336 97.1983 30.0672C95.9205 30.5075 94.6145 30.1115 93.8351 28.9259C92.5956 27.0393 91.4226 25.1085 90.2214 23.1959C89.8278 22.568 89.3959 21.9582 89.0458 21.3068C88.6778 20.6215 88.4504 20.5251 87.9903 21.2755C86.4953 23.7275 84.9415 26.143 83.3979 28.5611C82.2913 30.2965 80.7528 30.729 79.2705 29.7493C77.87 28.8216 77.6298 27.1305 78.6725 25.4707C80.6608 22.2996 82.6388 19.1232 84.6604 15.9756C85.0514 15.3684 85.0565 14.9411 84.6655 14.3288C82.6261 11.155 80.6301 7.95 78.624 4.75281C77.594 3.11122 77.9186 1.43836 79.4494 0.448193C80.74 -0.385631 82.3296 0.067761 83.3084 1.59209C84.8597 4.00758 86.388 6.43869 87.9213 8.86721C88.5117 9.80265 88.5245 9.81829 89.0995 8.88284C89.7921 7.75457 90.7504 7.17871 92.064 7.37675C93.2166 7.55133 93.9117 8.29916 94.313 9.38053C94.6273 10.2248 94.3769 10.9856 93.968 11.6996C93.4696 12.5673 92.9585 13.4324 92.3809 14.2428C91.9107 14.902 91.9771 15.4257 92.4014 16.0876C94.4229 19.2379 96.3933 22.4194 98.3943 25.5802C98.7521 26.1456 98.9387 26.7449 98.9744 27.5058L98.9719 27.5084Z" fill="#DD004A"/>
<path d="M0.00273882 15.1758C0.00273882 11.3167 -0.00237244 7.45768 0.00273882 3.59864C0.00785008 1.19097 1.16299 0.00798534 3.51929 0.00277394C7.91753 -0.00243746 12.3158 0.00277394 16.714 0.00277394C17.9637 0.00277394 18.9476 0.503068 19.5303 1.66C20.0593 2.7127 19.9443 3.73935 19.2415 4.67479C18.6128 5.51383 17.7363 5.81088 16.7217 5.80827C13.4402 5.80045 10.1563 5.83693 6.87483 5.78482C5.96502 5.76919 5.68135 6.01933 5.68646 6.97302C5.72479 13.6853 5.71457 20.3976 5.70179 27.1125C5.69924 29.3221 3.89241 30.737 1.93735 30.1012C0.728538 29.7077 0.0129613 28.5769 0.00785008 26.9483C-0.00492807 23.0241 0.00273882 19.0999 0.00273882 15.1758Z" fill="#DD004A"/>
<path d="M23.8721 15.1235C23.8721 11.168 23.867 7.21517 23.8721 3.25971C23.8747 1.29502 24.8995 0.138087 26.6169 0.127664C28.3982 0.117241 29.4434 1.26635 29.446 3.27535C29.4536 9.95115 29.4664 16.6296 29.4306 23.3054C29.4255 24.233 29.6632 24.603 30.6011 24.5066C31.2937 24.4336 32.0016 24.4649 32.7018 24.504C34.1509 24.5848 35.2549 25.6687 35.3623 27.0706C35.4875 28.707 34.6799 29.9525 33.1133 30.1479C30.7417 30.4424 28.3445 30.4476 25.9729 30.1193C24.6439 29.9342 23.8798 28.8216 23.8747 27.2764C23.8619 23.2246 23.8696 19.1727 23.8696 15.1209L23.8721 15.1235Z" fill="#DD004A"/>
<path d="M68.611 0.0468984C70.1137 0.0208414 71.4248 1.30545 71.4682 2.84802C71.5142 4.42447 70.2313 5.77422 68.6621 5.79768C67.1109 5.82113 65.8024 4.49222 65.8049 2.90274C65.8075 1.3732 67.0828 0.0729553 68.611 0.0468984Z" fill="#FFE4B3"/>
<path d="M11.3214 13.0077C12.8574 13.0129 14.1173 14.2818 14.1275 15.8322C14.1377 17.4452 12.8829 18.7246 11.2908 18.7298C9.75484 18.735 8.50258 17.4712 8.48725 15.9C8.46936 14.2923 9.73695 12.9998 11.3214 13.0051V13.0077Z" fill="#FFE4B3"/>
<path d="M96.1275 5.79767C94.6171 5.77943 93.37 4.46094 93.3802 2.88971C93.3904 1.33671 94.6733 0.0416793 96.1965 0.0468907C97.7018 0.0521021 98.9898 1.36537 99 2.91055C99.0102 4.50003 97.7018 5.81591 96.1275 5.79767Z" fill="#FFE4B3"/>
<path d="M43.8393 27.4094C43.8265 28.9936 42.5742 30.2678 41.046 30.26C39.5075 30.2522 38.2501 28.965 38.2501 27.3989C38.2501 25.7834 39.5407 24.4753 41.1073 24.504C42.6535 24.5327 43.8546 25.8095 43.8418 27.4094H43.8393Z" fill="#FFE4B3"/>
</g>
<defs>
<clipPath id="clip0_26_1842">
<rect width="99" height="31" fill="white"/>
</clipPath>
</defs>
</svg>
