<svg width="25" height="25" viewBox="0 0 25 25" fill="none" xmlns="http://www.w3.org/2000/svg">
<path fill-rule="evenodd" clip-rule="evenodd" d="M9.16608 0.000316433C9.41423 0.00626742 9.65452 0.0978213 9.85343 0.262209C10.0523 0.426596 10.1999 0.655621 10.2757 0.917339L15.5311 19.0994L17.868 11.4587C17.9477 11.1972 18.0995 10.97 18.302 10.809C18.5044 10.6479 18.7474 10.5612 18.9966 10.561H23.4477C23.7639 10.561 24.0672 10.7001 24.2908 10.9477C24.5144 11.1952 24.64 11.531 24.64 11.8811C24.64 12.2312 24.5144 12.567 24.2908 12.8146C24.0672 13.0621 23.7639 13.2012 23.4477 13.2012H19.8519L16.628 23.7443C16.5474 24.0071 16.3941 24.2351 16.1897 24.3959C15.9854 24.5567 15.7405 24.6421 15.4899 24.64C15.2392 24.6378 14.9955 24.5482 14.7935 24.384C14.5914 24.2197 14.4412 23.9891 14.3643 23.725L9.06434 5.38628L6.76249 12.3352C6.67849 12.5891 6.52611 12.8083 6.32596 12.9632C6.12581 13.118 5.88754 13.2011 5.64335 13.2012H1.19226C0.876051 13.2012 0.572796 13.0621 0.349204 12.8146C0.125613 12.567 0 12.2312 0 11.8811C0 11.531 0.125613 11.1952 0.349204 10.9477C0.572796 10.7001 0.876051 10.561 1.19226 10.561H4.81036L8.02151 0.866295C8.19638 0.336499 8.65738 -0.0120044 9.16608 0.000316433Z" fill="#DD004A"/>
</svg>
