<svg width="35" height="35" viewBox="0 0 35 35" fill="none" xmlns="http://www.w3.org/2000/svg">
<path fill-rule="evenodd" clip-rule="evenodd" d="M13.02 0.000449479C13.3725 0.00890259 13.7138 0.138951 13.9963 0.372456C14.2789 0.605961 14.4886 0.931279 14.5961 1.30304L22.0613 27.1298L25.3806 16.2766C25.494 15.9051 25.7095 15.5824 25.9971 15.3536C26.2847 15.1249 26.6298 15.0018 26.9839 15.0015H33.3065C33.7556 15.0015 34.1864 15.199 34.504 15.5507C34.8216 15.9023 35 16.3793 35 16.8766C35 17.3739 34.8216 17.8509 34.504 18.2025C34.1864 18.5542 33.7556 18.7517 33.3065 18.7517H28.1987L23.6194 33.7277C23.5049 34.1011 23.287 34.4249 22.9968 34.6533C22.7066 34.8817 22.3587 35.003 22.0026 34.9999C21.6466 34.9969 21.3005 34.8697 21.0134 34.6363C20.7264 34.403 20.5131 34.0755 20.4039 33.7002L12.8755 7.65097L9.60581 17.5216C9.48649 17.8822 9.27005 18.1936 8.98574 18.4136C8.70144 18.6336 8.36298 18.7516 8.01613 18.7517H1.69355C1.24439 18.7517 0.813631 18.5542 0.496029 18.2025C0.178427 17.8509 0 17.3739 0 16.8766C0 16.3793 0.178427 15.9023 0.496029 15.5507C0.813631 15.199 1.24439 15.0015 1.69355 15.0015H6.8329L11.3942 1.23053C11.6426 0.477982 12.2974 -0.0170517 13.02 0.000449479Z" fill="#FFF8F8"/>
</svg>
