<svg width="23" height="27" viewBox="0 0 23 27" fill="none" xmlns="http://www.w3.org/2000/svg">
<path d="M16.246 7.95113C16.246 10.4913 14.2526 12.5243 11.8254 12.5243C9.39824 12.5243 7.40479 10.4913 7.40479 7.95113C7.40479 5.41092 9.39824 3.37793 11.8254 3.37793C14.2526 3.37793 16.246 5.41092 16.246 7.95113Z" fill="#00C52B" stroke="#00C52B"/>
<path d="M20.1661 24.7H2.48389V23.6619C2.48389 20.3046 5.20557 17.5829 8.56293 17.5829H12.5651C16.6039 17.5829 19.9086 20.7263 20.1661 24.7Z" fill="#00C52B" stroke="#00C52B"/>
<path d="M11.4429 13.6C12.6681 13.6 13.8655 13.2272 14.8838 12.5292C15.902 11.8311 16.6953 10.8392 17.1636 9.6792C17.6319 8.51921 17.7544 7.24293 17.5157 6.01165C17.2769 4.78036 16.6877 3.649 15.822 2.76079C14.9562 1.87254 13.8529 1.26733 12.6513 1.02211C11.4498 0.776893 10.2043 0.902774 9.07266 1.38372C7.941 1.86466 6.97418 2.67891 6.29414 3.72311C5.61413 4.76729 5.25132 5.99465 5.25132 7.24999C5.25132 8.9333 5.90304 10.5482 7.0639 11.7392C8.22484 12.9303 9.79997 13.6 11.4429 13.6ZM11.4429 2.88571C12.2831 2.88571 13.1047 3.14133 13.8038 3.62056C14.5028 4.09981 15.0481 4.78126 15.3701 5.57902C15.6922 6.37681 15.7765 7.25481 15.6123 8.1019C15.4481 8.94897 15.0428 9.72672 14.448 10.3369C13.8533 10.9471 13.0959 11.3623 12.2718 11.5305C11.4477 11.6987 10.5934 11.6124 9.81693 11.2824C9.04042 10.9524 8.37631 10.3934 7.90888 9.67564C7.44143 8.95787 7.19178 8.11373 7.19178 7.24999C7.19178 6.0917 7.64027 4.98134 8.43781 4.16307C9.23527 3.34488 10.3163 2.88571 11.4429 2.88571Z" fill="#00C52B" stroke="#00C52B" stroke-width="0.2"/>
<path d="M12.313 15.1858H10.5725C8.00637 15.1858 5.54586 16.2317 3.73212 18.0926C1.91846 19.9534 0.9 22.4767 0.9 25.1072C0.9 25.3697 1.00161 25.6219 1.18327 25.8083C1.36502 25.9948 1.61207 26.1 1.87023 26.1H21.0153C21.2735 26.1 21.5205 25.9948 21.7022 25.8083C21.8839 25.6219 21.9855 25.3697 21.9855 25.1072C21.9855 22.4767 20.9671 19.9534 19.1534 18.0926C17.3397 16.2317 14.8791 15.1858 12.313 15.1858ZM17.4644 19.1927C18.8544 20.4688 19.7475 22.217 19.9806 24.1143H2.90493C3.13802 22.217 4.03111 20.4688 5.42111 19.1927C6.83807 17.8917 8.67206 17.1724 10.5726 17.1715H12.3129C14.2135 17.1724 16.0475 17.8917 17.4644 19.1927Z" fill="#00C52B" stroke="#00C52B" stroke-width="0.2"/>
</svg>
