<svg width="22" height="25" viewBox="0 0 22 25" fill="none" xmlns="http://www.w3.org/2000/svg">
<path d="M10.6113 12.6221C11.8355 12.6221 13.0323 12.2609 14.0502 11.584C15.0681 10.9072 15.8615 9.94513 16.33 8.81957C16.7985 7.69401 16.9211 6.45547 16.6822 5.26059C16.4434 4.0657 15.8539 2.96813 14.9882 2.10666C14.1225 1.2452 13.0196 0.65853 11.8189 0.420852C10.6181 0.183174 9.37356 0.305159 8.24251 0.771381C7.11145 1.2376 6.14472 2.02712 5.46457 3.0401C4.78442 4.05307 4.42139 5.24401 4.42139 6.46231C4.42139 8.09599 5.07353 9.66277 6.23436 10.818C7.39519 11.9731 8.96961 12.6221 10.6113 12.6221ZM10.6113 2.06244C11.4857 2.06244 12.3406 2.32049 13.0676 2.80395C13.7947 3.28742 14.3614 3.97458 14.6961 4.77855C15.0307 5.58252 15.1183 6.46719 14.9477 7.32068C14.7771 8.17417 14.356 8.95815 13.7376 9.57348C13.1193 10.1888 12.3315 10.6079 11.4738 10.7776C10.6162 10.9474 9.72719 10.8603 8.9193 10.5273C8.1114 10.1942 7.42088 9.6303 6.93506 8.90674C6.44923 8.18319 6.18993 7.33252 6.18993 6.46231C6.18993 5.29539 6.65574 4.17627 7.48491 3.35113C8.31407 2.526 9.43866 2.06244 10.6113 2.06244Z" fill="#DD004A"/>
<path d="M11.4955 14.3821H9.72697C7.14721 14.3821 4.67312 15.4019 2.84896 17.2172C1.0248 19.0325 0 21.4946 0 24.0618C0 24.2952 0.093164 24.519 0.258997 24.684C0.424829 24.8491 0.649747 24.9418 0.88427 24.9418H20.3382C20.5727 24.9418 20.7976 24.8491 20.9635 24.684C21.1293 24.519 21.2225 24.2952 21.2225 24.0618C21.2225 21.4946 20.1977 19.0325 18.3735 17.2172C16.5494 15.4019 14.0753 14.3821 11.4955 14.3821ZM1.8216 23.1818C2.03903 21.2464 2.96541 19.4586 4.42372 18.16C5.88203 16.8614 7.77002 16.143 9.72697 16.142H11.4955C13.4524 16.143 15.3404 16.8614 16.7988 18.16C18.2571 19.4586 19.1834 21.2464 19.4009 23.1818H1.8216Z" fill="#DD004A"/>
</svg>
